<svg width="30" height="30" viewBox="0 0 30 30" fill="none" xmlns="http://www.w3.org/2000/svg">
<path d="M29.6668 6.99998V1.66665C29.6668 1.31302 29.5264 0.973885 29.2763 0.723836C29.0263 0.473788 28.6871 0.333313 28.3335 0.333313H1.66683C1.31321 0.333313 0.974068 0.473788 0.724019 0.723836C0.473971 0.973885 0.333496 1.31302 0.333496 1.66665V6.99998H29.6668Z" fill="#22B66D"/>
<path d="M0.333496 9.66663V28.3333C0.333496 28.6869 0.473971 29.0261 0.724019 29.2761C0.974068 29.5262 1.31321 29.6666 1.66683 29.6666H8.3335V9.66663H0.333496Z" fill="#72D0A2"/>
<path d="M11 29.6666H28.3333C28.687 29.6666 29.0261 29.5262 29.2761 29.2761C29.5262 29.0261 29.6667 28.6869 29.6667 28.3333V9.66663H11V29.6666Z" fill="#A3F5DD"/>
</svg>
