<svg width="117" height="117" viewBox="0 0 117 117" fill="none" xmlns="http://www.w3.org/2000/svg">
<circle cx="58.5" cy="58.5" r="58.5" fill="#E8F8F4"/>
<circle cx="58.5" cy="58.5" r="41.5" fill="#B1FFE9"/>
<path d="M45.178 64.6089L40.4023 69.3845V66.6788C40.4023 66.0155 39.8645 65.4777 39.2012 65.4777C38.5378 65.4777 38 66.0155 38 66.6788V72.2843C38 72.9477 38.5378 73.4855 39.2012 73.4855H44.8066C45.47 73.4855 46.0078 72.9477 46.0078 72.2843C46.0078 71.6209 45.47 71.0831 44.8066 71.0831H42.101L46.8767 66.3075C47.3458 65.8385 47.3458 65.0779 46.8767 64.6088C46.4077 64.1398 45.6471 64.1398 45.178 64.6089Z" fill="#22B66D"/>
<path d="M77.7988 65.4776C77.1354 65.4776 76.5976 66.0154 76.5976 66.6788V69.3845L71.822 64.6089C71.353 64.1399 70.5924 64.1399 70.1233 64.6089C69.6542 65.0779 69.6542 65.8385 70.1233 66.3076L74.8989 71.0832H72.1933C71.53 71.0832 70.9922 71.621 70.9922 72.2844C70.9922 72.9477 71.53 73.4855 72.1933 73.4855H77.7988C78.4622 73.4855 79 72.9477 79 72.2844V66.6789C79 66.0154 78.4622 65.4776 77.7988 65.4776Z" fill="#22B66D"/>
<path d="M61.6141 73.5183L59.701 75.4314V68.3215C59.701 67.6581 59.1632 67.1203 58.4998 67.1203C57.8364 67.1203 57.2986 67.6581 57.2986 68.3215V75.4314L55.3855 73.5183C54.9165 73.0493 54.1559 73.0493 53.6868 73.5183C53.2177 73.9873 53.2177 74.7479 53.6868 75.217L57.6503 79.1805C58.1191 79.6494 58.8809 79.649 59.3494 79.1805L63.3128 75.217C63.7819 74.748 63.7819 73.9874 63.3128 73.5183C62.8437 73.0491 62.0832 73.0491 61.6141 73.5183Z" fill="#22B66D"/>
<g clip-path="url(#clip0)">
<path d="M68.7497 42.125H63.6247V41.1C63.6247 39.9694 62.7054 39.05 61.5747 39.05H55.4247C54.2941 39.05 53.3747 39.9693 53.3747 41.1V42.125H48.2497C47.1191 42.125 46.1997 43.0444 46.1997 44.175V47.25C46.1997 48.3806 47.1191 49.3 48.2497 49.3H56.4497V48.7875C56.4497 48.5042 56.679 48.275 56.9623 48.275H60.0373C60.3206 48.275 60.5498 48.5042 60.5498 48.7875V49.3H68.7498C69.8804 49.3 70.7997 48.3806 70.7997 47.25V44.175C70.7997 43.0444 69.8804 42.125 68.7497 42.125ZM61.5747 42.125H55.4247V41.1H61.5747V42.125Z" fill="#22B66D"/>
<path d="M70.5154 49.853C70.3408 49.7664 70.1321 49.7865 69.9779 49.9036C69.6136 50.1793 69.1891 50.325 68.7497 50.325H60.5497V51.8625C60.5497 52.1458 60.3205 52.375 60.0372 52.375H56.9622C56.6789 52.375 56.4497 52.1458 56.4497 51.8625V50.325H48.2497C47.8103 50.325 47.3859 50.1793 47.0215 49.9036C46.8668 49.7855 46.6587 49.7654 46.484 49.853C46.3098 49.9396 46.1997 50.1173 46.1997 50.312V57.5C46.1997 58.6306 47.1191 59.55 48.2497 59.55H68.7498C69.8804 59.55 70.7998 58.6307 70.7998 57.5V50.312C70.7997 50.1173 70.6896 49.9396 70.5154 49.853Z" fill="#22B66D"/>
</g>
<defs>
<clipPath id="clip0">
<rect width="24.6" height="24.6" fill="white" transform="translate(46.1997 37)"/>
</clipPath>
</defs>
</svg>
